<?xml version="1.0" encoding="UTF-8" standalone="no"?>
<!DOCTYPE svg PUBLIC "-//W3C//DTD SVG 1.1//EN"
 "http://www.w3.org/Graphics/SVG/1.1/DTD/svg11.dtd">
<!-- Generated by graphviz version 2.40.1 (20161225.0304)
 -->
<!-- Title: dependencies Pages: 1 -->
<svg width="2046pt" height="450pt"
 viewBox="0.00 0.00 2046.00 450.00" xmlns="http://www.w3.org/2000/svg" xmlns:xlink="http://www.w3.org/1999/xlink">
<g id="graph0" class="graph" transform="scale(1 1) rotate(0) translate(4 446)">
<title>dependencies</title>
<polygon fill="#ffffff" stroke="transparent" points="-4,4 -4,-446 2042,-446 2042,4 -4,4"/>
<text text-anchor="start" x="998.0091" y="-42.4" font-family="sans-serif" font-weight="bold" font-size="14.00" fill="#000000">Legend</text>
<polygon fill="#ffffb3" stroke="transparent" points="785,-10 785,-30 805,-30 805,-10 785,-10"/>
<text text-anchor="start" x="808.629" y="-15.4" font-family="sans-serif" font-size="14.00" fill="#000000"> &#160;Declarations</text>
<polygon fill="#8dd3c7" stroke="transparent" points="898,-10 898,-30 918,-30 918,-10 898,-10"/>
<text text-anchor="start" x="921.7251" y="-15.4" font-family="sans-serif" font-size="14.00" fill="#000000"> &#160;Module</text>
<polygon fill="#80b1d3" stroke="transparent" points="984,-10 984,-30 1004,-30 1004,-10 984,-10"/>
<text text-anchor="start" x="1007.7812" y="-15.4" font-family="sans-serif" font-size="14.00" fill="#000000"> &#160;Bootstrap</text>
<polygon fill="#fdb462" stroke="transparent" points="1081,-10 1081,-30 1101,-30 1101,-10 1081,-10"/>
<text text-anchor="start" x="1104.6732" y="-15.4" font-family="sans-serif" font-size="14.00" fill="#000000"> &#160;Providers</text>
<polygon fill="#fb8072" stroke="transparent" points="1177,-10 1177,-30 1197,-30 1197,-10 1177,-10"/>
<text text-anchor="start" x="1200.7258" y="-15.4" font-family="sans-serif" font-size="14.00" fill="#000000"> &#160;Exports</text>
<g id="clust7" class="cluster">
<title>cluster_AppModule</title>
<polygon fill="none" stroke="#000000" stroke-dasharray="1,5" points="717,-146 717,-434 1308,-434 1308,-146 717,-146"/>
</g>
<g id="clust8" class="cluster">
<title>cluster_AppModule_declarations</title>
<polygon fill="none" stroke="#000000" points="1178,-230 1178,-282 1300,-282 1300,-230 1178,-230"/>
</g>
<g id="clust9" class="cluster">
<title>cluster_AppModule_AppComponent_providers</title>
<polygon fill="none" stroke="#000000" points="796,-154 796,-206 1300,-206 1300,-154 796,-154"/>
</g>
<g id="clust10" class="cluster">
<title>cluster_AppModule_imports</title>
<polygon fill="none" stroke="#000000" points="725,-230 725,-282 1170,-282 1170,-230 725,-230"/>
</g>
<g id="clust12" class="cluster">
<title>cluster_AppModule_bootstrap</title>
<polygon fill="none" stroke="#000000" points="977,-374 977,-426 1101,-426 1101,-374 977,-374"/>
</g>
<g id="clust14" class="cluster">
<title>cluster_AppTaskViewModule</title>
<polygon fill="none" stroke="#000000" stroke-dasharray="1,5" points="78,-146 78,-214 709,-214 709,-146 78,-146"/>
</g>
<g id="clust15" class="cluster">
<title>cluster_AppTaskViewModule_declarations</title>
<polygon fill="none" stroke="#000000" points="333,-154 333,-206 511,-206 511,-154 333,-154"/>
</g>
<g id="clust17" class="cluster">
<title>cluster_AppTaskViewModule_imports</title>
<polygon fill="none" stroke="#000000" points="86,-154 86,-206 325,-206 325,-154 86,-154"/>
</g>
<g id="clust18" class="cluster">
<title>cluster_AppTaskViewModule_exports</title>
<polygon fill="none" stroke="#000000" points="519,-154 519,-206 701,-206 701,-154 519,-154"/>
</g>
<g id="clust21" class="cluster">
<title>cluster_TasksOverviewModule</title>
<polygon fill="none" stroke="#000000" stroke-dasharray="1,5" points="1316,-222 1316,-290 2030,-290 2030,-222 1316,-222"/>
</g>
<g id="clust22" class="cluster">
<title>cluster_TasksOverviewModule_declarations</title>
<polygon fill="none" stroke="#000000" points="1520,-230 1520,-282 2022,-282 2022,-230 1520,-230"/>
</g>
<g id="clust27" class="cluster">
<title>cluster_TasksOverviewModule_exports</title>
<polygon fill="none" stroke="#000000" points="1324,-230 1324,-282 1512,-282 1512,-230 1324,-230"/>
</g>
<g id="clust30" class="cluster">
<title>cluster_ToolbarModule</title>
<polygon fill="none" stroke="#000000" stroke-dasharray="1,5" points="1316,-298 1316,-366 1628,-366 1628,-298 1316,-298"/>
</g>
<g id="clust31" class="cluster">
<title>cluster_ToolbarModule_declarations</title>
<polygon fill="none" stroke="#000000" points="1478,-306 1478,-358 1620,-358 1620,-306 1478,-306"/>
</g>
<g id="clust34" class="cluster">
<title>cluster_ToolbarModule_exports</title>
<polygon fill="none" stroke="#000000" points="1324,-306 1324,-358 1470,-358 1470,-306 1324,-306"/>
</g>
<g id="clust37" class="cluster">
<title>cluster_UtilsModule</title>
<polygon fill="none" stroke="#000000" stroke-dasharray="1,5" points="8,-70 8,-138 264,-138 264,-70 8,-70"/>
</g>
<g id="clust38" class="cluster">
<title>cluster_UtilsModule_declarations</title>
<polygon fill="none" stroke="#000000" points="142,-78 142,-130 256,-130 256,-78 142,-78"/>
</g>
<g id="clust41" class="cluster">
<title>cluster_UtilsModule_exports</title>
<polygon fill="none" stroke="#000000" points="16,-78 16,-130 134,-130 134,-78 16,-78"/>
</g>
<!-- AppComponent -->
<g id="node1" class="node">
<title>AppComponent</title>
<polygon fill="#ffffb3" stroke="#000000" points="1291.9399,-274 1186.0601,-274 1186.0601,-238 1291.9399,-238 1291.9399,-274"/>
<text text-anchor="middle" x="1239" y="-251.8" font-family="Times,serif" font-size="14.00" fill="#000000">AppComponent</text>
</g>
<!-- AppModule -->
<g id="node2" class="node">
<title>AppModule</title>
<polygon fill="#8dd3c7" stroke="#000000" points="1080.6571,-350 1077.6571,-354 1056.6571,-354 1053.6571,-350 997.3429,-350 997.3429,-314 1080.6571,-314 1080.6571,-350"/>
<text text-anchor="middle" x="1039" y="-327.8" font-family="Times,serif" font-size="14.00" fill="#000000">AppModule</text>
</g>
<!-- AppComponent&#45;&gt;AppModule -->
<g id="edge1" class="edge">
<title>AppComponent&#45;&gt;AppModule</title>
<path fill="none" stroke="#000000" d="M1239,-274.1985C1239,-298.3563 1239,-338 1239,-338 1239,-338 1090.9266,-338 1090.9266,-338"/>
<polygon fill="#000000" stroke="#000000" points="1090.9266,-334.5001 1080.9266,-338 1090.9265,-341.5001 1090.9266,-334.5001"/>
</g>
<!-- AppComponent  -->
<g id="node9" class="node">
<title>AppComponent </title>
<polygon fill="#80b1d3" stroke="#000000" points="1093.439,-418 984.561,-418 984.561,-382 1093.439,-382 1093.439,-418"/>
<text text-anchor="middle" x="1039" y="-395.8" font-family="Times,serif" font-size="14.00" fill="#000000">AppComponent </text>
</g>
<!-- AppModule&#45;&gt;AppComponent  -->
<g id="edge8" class="edge">
<title>AppModule&#45;&gt;AppComponent </title>
<path fill="none" stroke="#000000" stroke-dasharray="1,5" d="M1039,-350.2228C1039,-350.2228 1039,-371.7269 1039,-371.7269"/>
<polygon fill="#000000" stroke="#000000" points="1035.5001,-371.7269 1039,-381.7269 1042.5001,-371.727 1035.5001,-371.7269"/>
</g>
<!-- ToolbarButtonService -->
<g id="node3" class="node">
<title>ToolbarButtonService</title>
<ellipse fill="#fdb462" stroke="#000000" cx="901" cy="-180" rx="96.71" ry="18"/>
<text text-anchor="middle" x="901" y="-175.8" font-family="Times,serif" font-size="14.00" fill="#000000">ToolbarButtonService</text>
</g>
<!-- ToolbarButtonService&#45;&gt;AppComponent -->
<g id="edge2" class="edge">
<title>ToolbarButtonService&#45;&gt;AppComponent</title>
<path fill="none" stroke="#000000" d="M981.2802,-190.167C981.2802,-202.597 981.2802,-222 981.2802,-222 981.2802,-222 1212.6403,-222 1212.6403,-222 1212.6403,-222 1212.6403,-227.8056 1212.6403,-227.8056"/>
<polygon fill="#000000" stroke="#000000" points="1209.1403,-227.8055 1212.6403,-237.8056 1216.1403,-227.8056 1209.1403,-227.8055"/>
</g>
<!-- TaskService -->
<g id="node4" class="node">
<title>TaskService</title>
<ellipse fill="#fdb462" stroke="#000000" cx="1075" cy="-180" rx="58.5251" ry="18"/>
<text text-anchor="middle" x="1075" y="-175.8" font-family="Times,serif" font-size="14.00" fill="#000000">TaskService</text>
</g>
<!-- TaskService&#45;&gt;AppComponent -->
<g id="edge3" class="edge">
<title>TaskService&#45;&gt;AppComponent</title>
<path fill="none" stroke="#000000" d="M1083.298,-198.1097C1083.298,-207.897 1083.298,-218 1083.298,-218 1083.298,-218 1239,-218 1239,-218 1239,-218 1239,-227.8903 1239,-227.8903"/>
<polygon fill="#000000" stroke="#000000" points="1235.5001,-227.8903 1239,-237.8903 1242.5001,-227.8904 1235.5001,-227.8903"/>
</g>
<!-- TaskModalComponent -->
<g id="node16" class="node">
<title>TaskModalComponent</title>
<polygon fill="#ffffb3" stroke="#000000" points="1673.594,-274 1528.406,-274 1528.406,-238 1673.594,-238 1673.594,-274"/>
<text text-anchor="middle" x="1601" y="-251.8" font-family="Times,serif" font-size="14.00" fill="#000000">TaskModalComponent</text>
</g>
<!-- TaskService&#45;&gt;TaskModalComponent -->
<g id="edge16" class="edge">
<title>TaskService&#45;&gt;TaskModalComponent</title>
<path fill="none" stroke="#000000" d="M1108.53,-194.9837C1108.53,-201.6409 1108.53,-208 1108.53,-208 1108.53,-208 1564.7265,-208 1564.7265,-208 1564.7265,-208 1564.7265,-227.8533 1564.7265,-227.8533"/>
<polygon fill="#000000" stroke="#000000" points="1561.2266,-227.8532 1564.7265,-237.8533 1568.2266,-227.8533 1561.2266,-227.8532"/>
</g>
<!-- ModuleService -->
<g id="node5" class="node">
<title>ModuleService</title>
<ellipse fill="#fdb462" stroke="#000000" cx="1222" cy="-180" rx="70.0635" ry="18"/>
<text text-anchor="middle" x="1222" y="-175.8" font-family="Times,serif" font-size="14.00" fill="#000000">ModuleService</text>
</g>
<!-- ModuleService&#45;&gt;AppComponent -->
<g id="edge4" class="edge">
<title>ModuleService&#45;&gt;AppComponent</title>
<path fill="none" stroke="#000000" d="M1265.3598,-194.295C1265.3598,-194.295 1265.3598,-227.7342 1265.3598,-227.7342"/>
<polygon fill="#000000" stroke="#000000" points="1261.8598,-227.7341 1265.3598,-237.7342 1268.8598,-227.7342 1261.8598,-227.7341"/>
</g>
<!-- ModuleService&#45;&gt;TaskModalComponent -->
<g id="edge17" class="edge">
<title>ModuleService&#45;&gt;TaskModalComponent</title>
<path fill="none" stroke="#000000" d="M1292.3988,-180C1402.0027,-180 1601,-180 1601,-180 1601,-180 1601,-227.9891 1601,-227.9891"/>
<polygon fill="#000000" stroke="#000000" points="1597.5001,-227.989 1601,-237.9891 1604.5001,-227.9891 1597.5001,-227.989"/>
</g>
<!-- TasksOverviewModule -->
<g id="node6" class="node">
<title>TasksOverviewModule</title>
<polygon fill="#8dd3c7" stroke="#000000" points="880.9003,-274 877.9003,-278 856.9003,-278 853.9003,-274 733.0997,-274 733.0997,-238 880.9003,-238 880.9003,-274"/>
<text text-anchor="middle" x="807" y="-251.8" font-family="Times,serif" font-size="14.00" fill="#000000">TasksOverviewModule</text>
</g>
<!-- TasksOverviewModule&#45;&gt;AppModule -->
<g id="edge5" class="edge">
<title>TasksOverviewModule&#45;&gt;AppModule</title>
<path fill="none" stroke="#000000" d="M807,-274.0109C807,-296.4852 807,-332 807,-332 807,-332 987.2551,-332 987.2551,-332"/>
<polygon fill="#000000" stroke="#000000" points="987.2551,-335.5001 997.2551,-332 987.2551,-328.5001 987.2551,-335.5001"/>
</g>
<!-- TasksOverviewComponent  -->
<g id="node17" class="node">
<title>TasksOverviewComponent </title>
<polygon fill="#fb8072" stroke="#000000" points="1504.1827,-274 1331.8173,-274 1331.8173,-238 1504.1827,-238 1504.1827,-274"/>
<text text-anchor="middle" x="1418" y="-251.8" font-family="Times,serif" font-size="14.00" fill="#000000">TasksOverviewComponent </text>
</g>
<!-- TasksOverviewModule&#45;&gt;TasksOverviewComponent  -->
<g id="edge20" class="edge">
<title>TasksOverviewModule&#45;&gt;TasksOverviewComponent </title>
<path fill="none" stroke="#000000" stroke-dasharray="5,2" d="M865.3889,-237.8975C865.3889,-226.9141 865.3889,-215 865.3889,-215 865.3889,-215 1418,-215 1418,-215 1418,-215 1418,-227.8975 1418,-227.8975"/>
<polygon fill="#000000" stroke="#000000" points="1414.5001,-227.8974 1418,-237.8975 1421.5001,-227.8975 1414.5001,-227.8974"/>
</g>
<!-- ToolbarModule -->
<g id="node7" class="node">
<title>ToolbarModule</title>
<polygon fill="#8dd3c7" stroke="#000000" points="1161.8683,-274 1158.8683,-278 1137.8683,-278 1134.8683,-274 1058.1317,-274 1058.1317,-238 1161.8683,-238 1161.8683,-274"/>
<text text-anchor="middle" x="1110" y="-251.8" font-family="Times,serif" font-size="14.00" fill="#000000">ToolbarModule</text>
</g>
<!-- ToolbarModule&#45;&gt;AppModule -->
<g id="edge6" class="edge">
<title>ToolbarModule&#45;&gt;AppModule</title>
<path fill="none" stroke="#000000" d="M1069.4471,-274.0109C1069.4471,-274.0109 1069.4471,-303.855 1069.4471,-303.855"/>
<polygon fill="#000000" stroke="#000000" points="1065.9471,-303.8549 1069.4471,-313.855 1072.9471,-303.855 1065.9471,-303.8549"/>
</g>
<!-- ToolbarComponent  -->
<g id="node19" class="node">
<title>ToolbarComponent </title>
<polygon fill="#fb8072" stroke="#000000" points="1461.6509,-350 1332.3491,-350 1332.3491,-314 1461.6509,-314 1461.6509,-350"/>
<text text-anchor="middle" x="1397" y="-327.8" font-family="Times,serif" font-size="14.00" fill="#000000">ToolbarComponent </text>
</g>
<!-- ToolbarModule&#45;&gt;ToolbarComponent  -->
<g id="edge22" class="edge">
<title>ToolbarModule&#45;&gt;ToolbarComponent </title>
<path fill="none" stroke="#000000" stroke-dasharray="5,2" d="M1139.1126,-274.0267C1139.1126,-294.7672 1139.1126,-326 1139.1126,-326 1139.1126,-326 1322.257,-326 1322.257,-326"/>
<polygon fill="#000000" stroke="#000000" points="1322.257,-329.5001 1332.257,-326 1322.2569,-322.5001 1322.257,-329.5001"/>
</g>
<!-- AppTaskViewModule -->
<g id="node8" class="node">
<title>AppTaskViewModule</title>
<polygon fill="#8dd3c7" stroke="#000000" points="1039.6867,-274 1036.6867,-278 1015.6867,-278 1012.6867,-274 898.3133,-274 898.3133,-238 1039.6867,-238 1039.6867,-274"/>
<text text-anchor="middle" x="969" y="-251.8" font-family="Times,serif" font-size="14.00" fill="#000000">AppTaskViewModule</text>
</g>
<!-- AppTaskViewModule&#45;&gt;AppModule -->
<g id="edge7" class="edge">
<title>AppTaskViewModule&#45;&gt;AppModule</title>
<path fill="none" stroke="#000000" d="M1018.3826,-274.0109C1018.3826,-274.0109 1018.3826,-303.855 1018.3826,-303.855"/>
<polygon fill="#000000" stroke="#000000" points="1014.8826,-303.8549 1018.3826,-313.855 1021.8826,-303.855 1014.8826,-303.8549"/>
</g>
<!-- AppTaskViewComponent  -->
<g id="node13" class="node">
<title>AppTaskViewComponent </title>
<polygon fill="#fb8072" stroke="#000000" points="693.4699,-198 526.5301,-198 526.5301,-162 693.4699,-162 693.4699,-198"/>
<text text-anchor="middle" x="610" y="-175.8" font-family="Times,serif" font-size="14.00" fill="#000000">AppTaskViewComponent </text>
</g>
<!-- AppTaskViewModule&#45;&gt;AppTaskViewComponent  -->
<g id="edge12" class="edge">
<title>AppTaskViewModule&#45;&gt;AppTaskViewComponent </title>
<path fill="none" stroke="#000000" stroke-dasharray="5,2" d="M964.7055,-237.9672C964.7055,-231.1474 964.7055,-225 964.7055,-225 964.7055,-225 610,-225 610,-225 610,-225 610,-208.0439 610,-208.0439"/>
<polygon fill="#000000" stroke="#000000" points="613.5001,-208.0439 610,-198.0439 606.5001,-208.044 613.5001,-208.0439"/>
</g>
<!-- AppTaskViewComponent -->
<g id="node10" class="node">
<title>AppTaskViewComponent</title>
<polygon fill="#ffffb3" stroke="#000000" points="503.4692,-198 340.5308,-198 340.5308,-162 503.4692,-162 503.4692,-198"/>
<text text-anchor="middle" x="422" y="-175.8" font-family="Times,serif" font-size="14.00" fill="#000000">AppTaskViewComponent</text>
</g>
<!-- AppTaskViewComponent&#45;&gt;AppTaskViewModule -->
<g id="edge9" class="edge">
<title>AppTaskViewComponent&#45;&gt;AppTaskViewModule</title>
<path fill="none" stroke="#000000" d="M422,-198.1467C422,-211.7395 422,-228 422,-228 422,-228 948.1308,-228 948.1308,-228 948.1308,-228 948.1308,-228.9793 948.1308,-228.9793"/>
<polygon fill="#000000" stroke="#000000" points="944.6309,-227.793 948.1308,-237.793 951.6309,-227.7931 944.6309,-227.793"/>
</g>
<!-- ApiFireflyModule -->
<g id="node11" class="node">
<title>ApiFireflyModule</title>
<polygon fill="#8dd3c7" stroke="#000000" points="317.1471,-198 314.1471,-202 293.1471,-202 290.1471,-198 198.8529,-198 198.8529,-162 317.1471,-162 317.1471,-198"/>
<text text-anchor="middle" x="258" y="-175.8" font-family="Times,serif" font-size="14.00" fill="#000000">ApiFireflyModule</text>
</g>
<!-- ApiFireflyModule&#45;&gt;TasksOverviewModule -->
<g id="edge18" class="edge">
<title>ApiFireflyModule&#45;&gt;TasksOverviewModule</title>
<path fill="none" stroke="#000000" d="M277.7744,-198.0267C277.7744,-218.7672 277.7744,-250 277.7744,-250 277.7744,-250 723.135,-250 723.135,-250"/>
<polygon fill="#000000" stroke="#000000" points="723.1351,-253.5001 733.135,-250 723.135,-246.5001 723.1351,-253.5001"/>
</g>
<!-- ApiFireflyModule&#45;&gt;AppTaskViewModule -->
<g id="edge10" class="edge">
<title>ApiFireflyModule&#45;&gt;AppTaskViewModule</title>
<path fill="none" stroke="#000000" d="M238.2256,-198.1871C238.2256,-213.1824 238.2256,-232 238.2256,-232 238.2256,-232 931.5561,-232 931.5561,-232 931.5561,-232 931.5561,-232.581 931.5561,-232.581"/>
<polygon fill="#000000" stroke="#000000" points="928.0563,-227.8097 931.5561,-237.8097 935.0563,-227.8098 928.0563,-227.8097"/>
</g>
<!-- UtilsModule -->
<g id="node12" class="node">
<title>UtilsModule</title>
<polygon fill="#8dd3c7" stroke="#000000" points="180.2731,-198 177.2731,-202 156.2731,-202 153.2731,-198 93.7269,-198 93.7269,-162 180.2731,-162 180.2731,-198"/>
<text text-anchor="middle" x="137" y="-175.8" font-family="Times,serif" font-size="14.00" fill="#000000">UtilsModule</text>
</g>
<!-- UtilsModule&#45;&gt;TasksOverviewModule -->
<g id="edge19" class="edge">
<title>UtilsModule&#45;&gt;TasksOverviewModule</title>
<path fill="none" stroke="#000000" d="M151.4621,-198.1985C151.4621,-222.3563 151.4621,-262 151.4621,-262 151.4621,-262 723.0758,-262 723.0758,-262"/>
<polygon fill="#000000" stroke="#000000" points="723.0758,-265.5001 733.0758,-262 723.0757,-258.5001 723.0758,-265.5001"/>
</g>
<!-- UtilsModule&#45;&gt;AppTaskViewModule -->
<g id="edge11" class="edge">
<title>UtilsModule&#45;&gt;AppTaskViewModule</title>
<path fill="none" stroke="#000000" d="M122.5379,-198.0091C122.5379,-214.0494 122.5379,-235 122.5379,-235 122.5379,-235 914.9814,-235 914.9814,-235 914.9814,-235 914.9814,-235.292 914.9814,-235.292"/>
<polygon fill="#000000" stroke="#000000" points="911.4818,-227.9198 914.9814,-237.92 918.4818,-227.9201 911.4818,-227.9198"/>
</g>
<!-- CapitalizePipe  -->
<g id="node21" class="node">
<title>CapitalizePipe </title>
<polygon fill="#fb8072" stroke="#000000" points="125.6453,-122 24.3547,-122 24.3547,-86 125.6453,-86 125.6453,-122"/>
<text text-anchor="middle" x="75" y="-99.8" font-family="Times,serif" font-size="14.00" fill="#000000">CapitalizePipe </text>
</g>
<!-- UtilsModule&#45;&gt;CapitalizePipe  -->
<g id="edge24" class="edge">
<title>UtilsModule&#45;&gt;CapitalizePipe </title>
<path fill="none" stroke="#000000" stroke-dasharray="5,2" d="M109.5931,-161.9891C109.5931,-161.9891 109.5931,-132.145 109.5931,-132.145"/>
<polygon fill="#000000" stroke="#000000" points="113.0932,-132.145 109.5931,-122.145 106.0932,-132.1451 113.0932,-132.145"/>
</g>
<!-- TasksOverviewComponent -->
<g id="node14" class="node">
<title>TasksOverviewComponent</title>
<polygon fill="#ffffb3" stroke="#000000" points="2013.6825,-274 1844.3175,-274 1844.3175,-238 2013.6825,-238 2013.6825,-274"/>
<text text-anchor="middle" x="1929" y="-251.8" font-family="Times,serif" font-size="14.00" fill="#000000">TasksOverviewComponent</text>
</g>
<!-- TasksOverviewComponent&#45;&gt;TasksOverviewModule -->
<g id="edge13" class="edge">
<title>TasksOverviewComponent&#45;&gt;TasksOverviewModule</title>
<path fill="none" stroke="#000000" d="M1929,-237.7181C1929,-222.0522 1929,-202 1929,-202 1929,-202 819.4561,-202 819.4561,-202 819.4561,-202 819.4561,-227.7181 819.4561,-227.7181"/>
<polygon fill="#000000" stroke="#000000" points="815.9562,-227.718 819.4561,-237.7181 822.9562,-227.7181 815.9562,-227.718"/>
</g>
<!-- TaskLineComponent -->
<g id="node15" class="node">
<title>TaskLineComponent</title>
<polygon fill="#ffffb3" stroke="#000000" points="1826.2022,-274 1691.7978,-274 1691.7978,-238 1826.2022,-238 1826.2022,-274"/>
<text text-anchor="middle" x="1759" y="-251.8" font-family="Times,serif" font-size="14.00" fill="#000000">TaskLineComponent</text>
</g>
<!-- TaskLineComponent&#45;&gt;TasksOverviewModule -->
<g id="edge14" class="edge">
<title>TaskLineComponent&#45;&gt;TasksOverviewModule</title>
<path fill="none" stroke="#000000" d="M1759,-237.8757C1759,-223.2168 1759,-205 1759,-205 1759,-205 834.767,-205 834.767,-205 834.767,-205 834.767,-227.8757 834.767,-227.8757"/>
<polygon fill="#000000" stroke="#000000" points="831.2671,-227.8757 834.767,-237.8757 838.2671,-227.8757 831.2671,-227.8757"/>
</g>
<!-- TaskModalComponent&#45;&gt;TasksOverviewModule -->
<g id="edge15" class="edge">
<title>TaskModalComponent&#45;&gt;TasksOverviewModule</title>
<path fill="none" stroke="#000000" d="M1637.2735,-237.8495C1637.2735,-225.7292 1637.2735,-212 1637.2735,-212 1637.2735,-212 850.078,-212 850.078,-212 850.078,-212 850.078,-227.8495 850.078,-227.8495"/>
<polygon fill="#000000" stroke="#000000" points="846.5781,-227.8494 850.078,-237.8495 853.5781,-227.8495 846.5781,-227.8494"/>
</g>
<!-- ToolbarComponent -->
<g id="node18" class="node">
<title>ToolbarComponent</title>
<polygon fill="#ffffb3" stroke="#000000" points="1611.6513,-350 1486.3487,-350 1486.3487,-314 1611.6513,-314 1611.6513,-350"/>
<text text-anchor="middle" x="1549" y="-327.8" font-family="Times,serif" font-size="14.00" fill="#000000">ToolbarComponent</text>
</g>
<!-- ToolbarComponent&#45;&gt;ToolbarModule -->
<g id="edge21" class="edge">
<title>ToolbarComponent&#45;&gt;ToolbarModule</title>
<path fill="none" stroke="#000000" d="M1495.2579,-313.8903C1495.2579,-304.103 1495.2579,-294 1495.2579,-294 1495.2579,-294 1116.291,-294 1116.291,-294 1116.291,-294 1116.291,-284.1097 1116.291,-284.1097"/>
<polygon fill="#000000" stroke="#000000" points="1119.7911,-284.1096 1116.291,-274.1097 1112.7911,-284.1097 1119.7911,-284.1096"/>
</g>
<!-- CapitalizePipe -->
<g id="node20" class="node">
<title>CapitalizePipe</title>
<polygon fill="#ffffb3" stroke="#000000" points="247.6458,-122 150.3542,-122 150.3542,-86 247.6458,-86 247.6458,-122"/>
<text text-anchor="middle" x="199" y="-99.8" font-family="Times,serif" font-size="14.00" fill="#000000">CapitalizePipe</text>
</g>
<!-- CapitalizePipe&#45;&gt;UtilsModule -->
<g id="edge23" class="edge">
<title>CapitalizePipe&#45;&gt;UtilsModule</title>
<path fill="none" stroke="#000000" d="M165.2819,-122.0109C165.2819,-122.0109 165.2819,-151.855 165.2819,-151.855"/>
<polygon fill="#000000" stroke="#000000" points="161.782,-151.8549 165.2819,-161.855 168.782,-151.855 161.782,-151.8549"/>
</g>
</g>
</svg>
