<?xml version="1.0" encoding="UTF-8" standalone="no"?>
<!DOCTYPE svg PUBLIC "-//W3C//DTD SVG 1.1//EN"
 "http://www.w3.org/Graphics/SVG/1.1/DTD/svg11.dtd">
<!-- Generated by graphviz version 2.40.1 (20161225.0304)
 -->
<!-- Title: dependencies Pages: 1 -->
<svg width="504pt" height="284pt"
 viewBox="0.00 0.00 504.00 284.00" xmlns="http://www.w3.org/2000/svg" xmlns:xlink="http://www.w3.org/1999/xlink">
<g id="graph0" class="graph" transform="scale(1 1) rotate(0) translate(4 280)">
<title>dependencies</title>
<polygon fill="#ffffff" stroke="transparent" points="-4,4 -4,-280 500,-280 500,4 -4,4"/>
<text text-anchor="start" x="227.0091" y="-42.4" font-family="sans-serif" font-weight="bold" font-size="14.00" fill="#000000">Legend</text>
<polygon fill="#ffffb3" stroke="transparent" points="14,-10 14,-30 34,-30 34,-10 14,-10"/>
<text text-anchor="start" x="37.629" y="-15.4" font-family="sans-serif" font-size="14.00" fill="#000000"> &#160;Declarations</text>
<polygon fill="#8dd3c7" stroke="transparent" points="127,-10 127,-30 147,-30 147,-10 127,-10"/>
<text text-anchor="start" x="150.7251" y="-15.4" font-family="sans-serif" font-size="14.00" fill="#000000"> &#160;Module</text>
<polygon fill="#80b1d3" stroke="transparent" points="213,-10 213,-30 233,-30 233,-10 213,-10"/>
<text text-anchor="start" x="236.7812" y="-15.4" font-family="sans-serif" font-size="14.00" fill="#000000"> &#160;Bootstrap</text>
<polygon fill="#fdb462" stroke="transparent" points="310,-10 310,-30 330,-30 330,-10 310,-10"/>
<text text-anchor="start" x="333.6732" y="-15.4" font-family="sans-serif" font-size="14.00" fill="#000000"> &#160;Providers</text>
<polygon fill="#fb8072" stroke="transparent" points="406,-10 406,-30 426,-30 426,-10 406,-10"/>
<text text-anchor="start" x="429.7258" y="-15.4" font-family="sans-serif" font-size="14.00" fill="#000000"> &#160;Exports</text>
<g id="clust1" class="cluster">
<title>cluster_AppTaskViewModule</title>
<polygon fill="none" stroke="#000000" stroke-dasharray="1,5" points="27.5,-70 27.5,-268 468.5,-268 468.5,-70 27.5,-70"/>
</g>
<g id="clust2" class="cluster">
<title>cluster_AppTaskViewModule_declarations</title>
<polygon fill="none" stroke="#000000" points="282.5,-78 282.5,-130 460.5,-130 460.5,-78 282.5,-78"/>
</g>
<g id="clust4" class="cluster">
<title>cluster_AppTaskViewModule_imports</title>
<polygon fill="none" stroke="#000000" points="35.5,-78 35.5,-130 274.5,-130 274.5,-78 35.5,-78"/>
</g>
<g id="clust5" class="cluster">
<title>cluster_AppTaskViewModule_exports</title>
<polygon fill="none" stroke="#000000" points="116.5,-208 116.5,-260 298.5,-260 298.5,-208 116.5,-208"/>
</g>
<!-- AppTaskViewComponent -->
<g id="node1" class="node">
<title>AppTaskViewComponent</title>
<polygon fill="#ffffb3" stroke="#000000" points="452.9692,-122 290.0308,-122 290.0308,-86 452.9692,-86 452.9692,-122"/>
<text text-anchor="middle" x="371.5" y="-99.8" font-family="Times,serif" font-size="14.00" fill="#000000">AppTaskViewComponent</text>
</g>
<!-- AppTaskViewModule -->
<g id="node2" class="node">
<title>AppTaskViewModule</title>
<polygon fill="#8dd3c7" stroke="#000000" points="278.1867,-187 275.1867,-191 254.1867,-191 251.1867,-187 136.8133,-187 136.8133,-151 278.1867,-151 278.1867,-187"/>
<text text-anchor="middle" x="207.5" y="-164.8" font-family="Times,serif" font-size="14.00" fill="#000000">AppTaskViewModule</text>
</g>
<!-- AppTaskViewComponent&#45;&gt;AppTaskViewModule -->
<g id="edge1" class="edge">
<title>AppTaskViewComponent&#45;&gt;AppTaskViewModule</title>
<path fill="none" stroke="#000000" d="M289.71,-104C279.4463,-104 272.4583,-104 272.4583,-104 272.4583,-104 272.4583,-140.8939 272.4583,-140.8939"/>
<polygon fill="#000000" stroke="#000000" points="268.9584,-140.8938 272.4583,-150.8939 275.9584,-140.8939 268.9584,-140.8938"/>
</g>
<!-- AppTaskViewComponent  -->
<g id="node5" class="node">
<title>AppTaskViewComponent </title>
<polygon fill="#fb8072" stroke="#000000" points="290.9699,-252 124.0301,-252 124.0301,-216 290.9699,-216 290.9699,-252"/>
<text text-anchor="middle" x="207.5" y="-229.8" font-family="Times,serif" font-size="14.00" fill="#000000">AppTaskViewComponent </text>
</g>
<!-- AppTaskViewModule&#45;&gt;AppTaskViewComponent  -->
<g id="edge4" class="edge">
<title>AppTaskViewModule&#45;&gt;AppTaskViewComponent </title>
<path fill="none" stroke="#000000" stroke-dasharray="5,2" d="M207.5,-187.1061C207.5,-187.1061 207.5,-205.991 207.5,-205.991"/>
<polygon fill="#000000" stroke="#000000" points="204.0001,-205.9909 207.5,-215.991 211.0001,-205.991 204.0001,-205.9909"/>
</g>
<!-- ApiFireflyModule -->
<g id="node3" class="node">
<title>ApiFireflyModule</title>
<polygon fill="#8dd3c7" stroke="#000000" points="266.6471,-122 263.6471,-126 242.6471,-126 239.6471,-122 148.3529,-122 148.3529,-86 266.6471,-86 266.6471,-122"/>
<text text-anchor="middle" x="207.5" y="-99.8" font-family="Times,serif" font-size="14.00" fill="#000000">ApiFireflyModule</text>
</g>
<!-- ApiFireflyModule&#45;&gt;AppTaskViewModule -->
<g id="edge2" class="edge">
<title>ApiFireflyModule&#45;&gt;AppTaskViewModule</title>
<path fill="none" stroke="#000000" d="M207.5,-122.1061C207.5,-122.1061 207.5,-140.991 207.5,-140.991"/>
<polygon fill="#000000" stroke="#000000" points="204.0001,-140.9909 207.5,-150.991 211.0001,-140.991 204.0001,-140.9909"/>
</g>
<!-- UtilsModule -->
<g id="node4" class="node">
<title>UtilsModule</title>
<polygon fill="#8dd3c7" stroke="#000000" points="129.7731,-122 126.7731,-126 105.7731,-126 102.7731,-122 43.2269,-122 43.2269,-86 129.7731,-86 129.7731,-122"/>
<text text-anchor="middle" x="86.5" y="-99.8" font-family="Times,serif" font-size="14.00" fill="#000000">UtilsModule</text>
</g>
<!-- UtilsModule&#45;&gt;AppTaskViewModule -->
<g id="edge3" class="edge">
<title>UtilsModule&#45;&gt;AppTaskViewModule</title>
<path fill="none" stroke="#000000" d="M129.825,-104C137.2048,-104 142.5417,-104 142.5417,-104 142.5417,-104 142.5417,-140.8939 142.5417,-140.8939"/>
<polygon fill="#000000" stroke="#000000" points="139.0418,-140.8938 142.5417,-150.8939 146.0418,-140.8939 139.0418,-140.8938"/>
</g>
</g>
</svg>
